<mxfile host="app.diagrams.net" modified="2023-07-04T12:20:54.799Z" agent="Mozilla/5.0 (Windows NT 10.0; Win64; x64) AppleWebKit/537.36 (KHTML, like Gecko) Chrome/114.0.0.0 Safari/537.36" version="21.5.2" etag="Y4J3ySdnNY3NzRLulmOk" type="github">
  <diagram name="PÃ¡gina-1" id="aML344seTFmD9cy7nSLi">
    <mxGraphModel>
      <root>
        <mxCell id="0" />
        <mxCell id="1" parent="0" />
      </root>
    </mxGraphModel>
  </diagram>
</mxfile>
